 
<svg version="1.1" id="Layer_1" xmlns="http://www.w3.org/2000/svg" xmlns:xlink="http://www.w3.org/1999/xlink" x="0px" y="0px"
	 width="100.8px" height="35px" viewBox="0 0 100.8 35" enable-background="new 0 0 100.8 35" xml:space="preserve">
<g>
	<path fill="#020303" stroke="#FFFFFF" stroke-width="0.6982" stroke-miterlimit="10" d="M100.4,29.7c0,3-2.2,4.9-5.3,4.9H5.9
		c-3,0-5.5-2.5-5.5-5.5V5.9c0-3,2.5-5.5,5.5-5.5h89.3c3,0,5.3,2.5,5.3,5.5V29.7z"/>
	<path fill="#020303" stroke="#FFFFFF" stroke-width="0.6982" stroke-miterlimit="10" d="M100.4,29.7c0,3-2.2,4.9-5.3,4.9H5.9
		c-3,0-5.5-2.5-5.5-5.5V5.9c0-3,2.5-5.5,5.5-5.5h89.3c3,0,5.3,2.5,5.3,5.5V29.7z"/>
	<g>
		<g>
			<path fill="#FFFFFF" d="M68.7,24.9L68,25.7c-0.2,0.1-0.3,0.2-0.5,0.3c-0.5,0.2-1.1,0.3-1.5,0.3c-0.5,0-1.3,0-2.1-0.6
				c-1.1-0.8-1.6-2.1-1.6-3.3c0-2.4,2-3.6,3.6-3.6c0.6,0,1.1,0.1,1.6,0.4c0.8,0.5,1,1.2,1.1,1.6l-3.7,1.5l-1.2,0.1
				c0.4,2,1.7,3.2,3.2,3.2C67.6,25.4,68.2,25.2,68.7,24.9C68.7,24.9,68.8,24.9,68.7,24.9z M66.5,21c0.3-0.1,0.5-0.2,0.5-0.4
				c0-0.6-0.7-1.4-1.6-1.4c-0.6,0-1.8,0.5-1.8,2.2c0,0.3,0,0.5,0,0.8L66.5,21z"/>
			<path fill="#FFFFFF" d="M61,24.8c0,0.6,0.1,0.7,0.6,0.8c0.3,0,0.5,0,0.8,0.1L61.9,26h-2.8c0.4-0.5,0.4-0.5,0.4-0.8v-0.4l0-9.3
				h-1.2l1.2-0.6h2.2c-0.5,0.3-0.6,0.5-0.7,1L61,24.8z"/>
			<path fill="#FFFFFF" d="M56.7,19.4c0.4,0.3,1.1,0.9,1.1,2.1c0,1.2-0.7,1.7-1.3,2.2c-0.2,0.2-0.4,0.4-0.4,0.8
				c0,0.3,0.2,0.5,0.4,0.7l0.6,0.4c0.7,0.6,1.3,1.1,1.3,2.2c0,1.5-1.4,3-4.1,3c-2.3,0-3.4-1.1-3.4-2.2c0-0.6,0.3-1.4,1.2-1.9
				c1-0.6,2.3-0.7,3-0.7c-0.2-0.3-0.5-0.6-0.5-1.1c0-0.3,0.1-0.4,0.2-0.6c-0.2,0-0.3,0-0.5,0c-1.7,0-2.6-1.2-2.6-2.5
				c0-0.7,0.3-1.5,1-2.1c0.9-0.7,2-0.9,2.8-0.9h3.2l-1,0.6L56.7,19.4L56.7,19.4z M55.6,26.4c-0.1,0-0.2,0-0.4,0c-0.1,0-1,0-1.6,0.3
				c-0.3,0.1-1.4,0.5-1.4,1.6c0,1.1,1.1,1.9,2.8,1.9c1.5,0,2.3-0.7,2.3-1.7C57.3,27.7,56.8,27.3,55.6,26.4z M56.1,23.4
				c0.4-0.4,0.4-0.9,0.4-1.1c0-1.1-0.7-2.9-2-2.9c-0.4,0-0.8,0.2-1.1,0.5c-0.3,0.3-0.3,0.8-0.3,1.2c0,1.1,0.6,2.8,2,2.8
				C55.4,23.9,55.8,23.7,56.1,23.4z"/>
			<path fill="#FFFFFF" d="M47,26.2c-2.5,0-3.8-1.9-3.8-3.7c0-2.1,1.7-3.8,4.1-3.8c2.3,0,3.8,1.8,3.8,3.7C51,24.2,49.5,26.2,47,26.2
				z M48.9,24.9c0.4-0.5,0.5-1.1,0.5-1.7c0-1.4-0.7-4-2.6-4c-0.5,0-1,0.2-1.4,0.5c-0.6,0.5-0.7,1.2-0.7,1.9c0,1.6,0.8,4.1,2.7,4.1
				C48,25.7,48.6,25.4,48.9,24.9z"/>
			<path fill="#FFFFFF" d="M38.6,26.2c-2.5,0-3.8-1.9-3.8-3.7c0-2.1,1.7-3.8,4.1-3.8c2.3,0,3.8,1.8,3.8,3.7
				C42.6,24.2,41.2,26.2,38.6,26.2z M40.6,24.9c0.4-0.5,0.5-1.1,0.5-1.7c0-1.4-0.7-4-2.6-4c-0.5,0-1,0.2-1.4,0.5
				c-0.6,0.5-0.7,1.2-0.7,1.9c0,1.6,0.8,4.1,2.7,4.1C39.6,25.7,40.2,25.4,40.6,24.9z"/>
			<path fill="#FFFFFF" d="M33.8,25.7l-2.1,0.5c-0.9,0.1-1.6,0.3-2.4,0.3c-4.1,0-5.6-3-5.6-5.3c0-2.9,2.2-5.5,5.9-5.5
				c0.8,0,1.6,0.1,2.3,0.3c1.1,0.3,1.6,0.7,1.9,0.9l-1.2,1.2L32,18.1l0.4-0.6c-0.5-0.5-1.4-1.4-3.2-1.4c-2.3,0-4.1,1.8-4.1,4.3
				c0,2.8,2,5.4,5.2,5.4c0.9,0,1.4-0.2,1.9-0.4v-2.4L30,23.2l1.2-0.6h3.1L34,22.9c-0.1,0.1-0.1,0.1-0.1,0.2c0,0.1,0,0.6,0,0.7
				L33.8,25.7L33.8,25.7L33.8,25.7z"/>
		</g>
		<g>
			<path fill="#FFFFFF" d="M73.3,25v4h-0.8V18.8h0.8V20c0.5-0.7,1.5-1.3,2.6-1.3c2,0,3.3,1.5,3.3,3.9c0,2.4-1.3,3.9-3.3,3.9
				C74.8,26.4,73.9,25.8,73.3,25z M78.3,22.5c0-1.8-0.9-3.1-2.6-3.1c-1,0-2,0.8-2.4,1.5v3.3c0.4,0.7,1.4,1.5,2.4,1.5
				C77.3,25.7,78.3,24.3,78.3,22.5z"/>
			<path fill="#FFFFFF" d="M80.2,26.2V16H81v10.2H80.2z"/>
			<path fill="#FFFFFF" d="M89.9,28.4c0.2,0.1,0.5,0.1,0.6,0.1c0.5,0,0.8-0.2,1.1-0.9l0.6-1.3l-3.1-7.4H90l2.7,6.4l2.7-6.4h0.9
				l-3.8,9c-0.4,0.9-1,1.4-1.9,1.4c-0.3,0-0.6,0-0.8-0.1L89.9,28.4z"/>
			<path fill="#FFFFFF" d="M87.6,26.2c-0.1-0.3-0.1-0.5-0.1-0.7c0-0.2,0-0.4,0-0.6c-0.3,0.4-0.7,0.7-1.2,1c-0.5,0.3-1,0.4-1.6,0.4
				c-0.8,0-1.4-0.2-1.8-0.6c-0.4-0.4-0.6-0.9-0.6-1.6c0-0.7,0.3-1.2,0.9-1.6c0.6-0.4,1.4-0.6,2.4-0.6h1.9V21c0-0.5-0.2-0.9-0.5-1.2
				c-0.4-0.3-0.9-0.5-1.5-0.5c-0.6,0-1.1,0.1-1.5,0.4c-0.4,0.3-0.6,0.6-0.6,1h-0.8l0,0c0-0.6,0.2-1,0.8-1.5c0.5-0.4,1.2-0.6,2.1-0.6
				c0.9,0,1.6,0.2,2.1,0.6c0.5,0.4,0.8,1,0.8,1.8v3.6c0,0.3,0,0.5,0,0.8c0,0.2,0.1,0.5,0.2,0.7L87.6,26.2L87.6,26.2z M84.8,25.6
				c0.7,0,1.2-0.2,1.7-0.4c0.5-0.3,0.8-0.7,1-1.2v-1.4h-1.9c-0.7,0-1.3,0.2-1.8,0.5c-0.5,0.3-0.7,0.7-0.7,1.1c0,0.4,0.1,0.8,0.4,1
				C83.8,25.5,84.3,25.6,84.8,25.6z"/>
		</g>
	</g>
	<g>
		<g>
			<path fill="#FFFFFF" d="M23.7,7.7c0-1.6,1.2-2.6,2.6-2.6c1,0,1.6,0.5,2,1l-0.7,0.4c-0.3-0.4-0.7-0.7-1.3-0.7
				c-1,0-1.7,0.7-1.7,1.8c0,1,0.7,1.8,1.7,1.8c0.5,0,1-0.2,1.2-0.4V8.2H26V7.5h2.4v1.9c-0.5,0.5-1.2,0.9-2,0.9
				C24.8,10.2,23.7,9.2,23.7,7.7z"/>
			<path fill="#FFFFFF" d="M29.4,10.1v-5h3.4v0.8h-2.5v1.3h2.5V8h-2.5v1.4h2.5v0.8L29.4,10.1L29.4,10.1z"/>
			<path fill="#FFFFFF" d="M35.2,10.1V5.9h-1.5V5.2h3.9v0.8h-1.5v4.2H35.2z"/>
			<path fill="#FFFFFF" d="M40.6,10.1v-5h0.9v5H40.6z"/>
			<path fill="#FFFFFF" d="M43.9,10.1V5.9h-1.5V5.2h3.9v0.8h-1.5v4.2H43.9z"/>
			<path fill="#FFFFFF" d="M49.1,7.7c0-1.5,1.1-2.6,2.5-2.6c1.5,0,2.5,1.1,2.5,2.6s-1.1,2.6-2.5,2.6C50.2,10.2,49.1,9.2,49.1,7.7z
				 M53.3,7.7c0-1-0.6-1.8-1.6-1.8c-1,0-1.6,0.8-1.6,1.8c0,1,0.6,1.8,1.6,1.8C52.7,9.5,53.3,8.7,53.3,7.7z"/>
			<path fill="#FFFFFF" d="M58.7,10.1l-2.6-3.6v3.6h-0.9v-5h0.9l2.5,3.4V5.2h0.9v5H58.7z"/>
		</g>
	</g>
	<g>
		<polygon fill="none" points="13.3,22.1 15.8,19.5 15.8,19.5 13.3,22.1 5.1,14 5.1,14 13.3,22.1 5.1,30.2 5.1,30.2 13.3,22.1 
			15.8,24.7 15.8,24.7 		"/>
		
			<linearGradient id="SVGID_1_" gradientUnits="userSpaceOnUse" x1="393.4208" y1="-716.769" x2="382.6793" y2="-723.4915" gradientTransform="matrix(0.7071 0.7071 -0.7071 0.7071 -773.4638 250.0774)">
			<stop  offset="0" style="stop-color:#D7E39E"/>
			<stop  offset="0.4456" style="stop-color:#95C4AA"/>
			<stop  offset="1" style="stop-color:#00A4B6"/>
		</linearGradient>
		<path fill="url(#SVGID_1_)" d="M15.8,19.5l-9.9-5.5c-0.3-0.2-0.5-0.2-0.8-0.1l8.1,8.1L15.8,19.5z"/>
		
			<linearGradient id="SVGID_2_" gradientUnits="userSpaceOnUse" x1="387.1765" y1="-722.5115" x2="401.1026" y2="-718.8711" gradientTransform="matrix(0.7071 0.7071 -0.7071 0.7071 -773.4638 250.0774)">
			<stop  offset="0" style="stop-color:#E72C7C"/>
			<stop  offset="1.920000e-02" style="stop-color:#E8327C"/>
			<stop  offset="0.7039" style="stop-color:#F8BE81"/>
			<stop  offset="1" style="stop-color:#FFEC75"/>
		</linearGradient>
		<path fill="url(#SVGID_2_)" d="M15.8,24.7l3.4-1.9c0.7-0.4,0.7-1,0-1.4l-3.4-1.9l-2.5,2.5L15.8,24.7z"/>
		
			<linearGradient id="SVGID_3_" gradientUnits="userSpaceOnUse" x1="394.95" y1="-711.6701" x2="379.8479" y2="-720.5552" gradientTransform="matrix(0.7071 0.7071 -0.7071 0.7071 -773.4638 250.0774)">
			<stop  offset="0" style="stop-color:#8CCBBC"/>
			<stop  offset="9.070000e-02" style="stop-color:#7EBEBB"/>
			<stop  offset="0.5396" style="stop-color:#467DAD"/>
			<stop  offset="0.8523" style="stop-color:#1F5BA3"/>
			<stop  offset="1" style="stop-color:#0B4F9E"/>
		</linearGradient>
		<path fill="url(#SVGID_3_)" d="M5.1,14c-0.3,0.1-0.5,0.4-0.5,0.9l0,14.6c0,0.5,0.2,0.8,0.5,0.9l8.1-8.1L5.1,14z"/>
		
			<linearGradient id="SVGID_4_" gradientUnits="userSpaceOnUse" x1="400.4336" y1="-718.7258" x2="391.1339" y2="-706.4739" gradientTransform="matrix(0.7071 0.7071 -0.7071 0.7071 -773.4638 250.0774)">
			<stop  offset="0" style="stop-color:#E94B30"/>
			<stop  offset="0.4704" style="stop-color:#B6506C"/>
			<stop  offset="0.8353" style="stop-color:#8D5292"/>
			<stop  offset="1" style="stop-color:#78539D"/>
		</linearGradient>
		<path fill="url(#SVGID_4_)" d="M5.1,30.2c0.2,0.1,0.5,0,0.8-0.1l9.9-5.5l-2.6-2.6L5.1,30.2z"/>
	</g>
</g>
</svg>
