<svg version="1.1" xmlns="http://www.w3.org/2000/svg" xmlns:xlink="http://www.w3.org/1999/xlink" x="0px" y="0px"
	 width="72px" height="19px" viewBox="0 0 72 19" xml:space="preserve">
<path opacity="1" fill="#e3e7eb" d="M67.242,18.317H4.607c-2.348,0-4.27-1.921-4.27-4.27V4.541c0-2.348,1.921-4.27,4.27-4.27
	h62.636c2.348,0,4.27,1.921,4.27,4.27v9.506C71.512,16.395,69.591,18.317,67.242,18.317z"/>
<g>
	<g>
		<path fill="#0C2B57" d="M10.028,12.602c0,0.636,0.336,0.804,0.588,0.84v0.132h-3.07v-0.132c0.24-0.036,0.587-0.204,0.587-0.84
			V6.15c0-0.636-0.348-0.804-0.587-0.84V5.178h3.418c1.943,0,3.418,0.672,3.418,2.291c0,2.026-1.619,2.614-3.478,2.614
			c-0.216,0-0.671-0.036-0.875-0.084V12.602z M10.688,9.568c1.271,0,1.739-0.792,1.739-2.062c0-1.235-0.612-1.859-1.739-1.859
			c-0.18,0-0.492,0.024-0.66,0.036V9.52C10.232,9.556,10.532,9.568,10.688,9.568z"/>
		<path fill="#0C2B57" d="M15.298,13.442c0.24-0.036,0.587-0.204,0.587-0.84V6.15c0-0.636-0.348-0.804-0.587-0.84V5.178h3.322
			c1.907,0,3.37,0.611,3.37,2.039c0,1.392-1.092,1.967-2.471,2.099v0.048c1.391,0.145,1.871,0.96,2.291,2.195
			c0.228,0.695,0.492,1.403,0.72,1.655c0.12,0.119,0.24,0.203,0.456,0.228v0.132h-2.471c-0.204-0.288-0.432-0.96-0.647-1.703
			c-0.468-1.583-0.888-2.207-1.751-2.207H17.78v2.915c0,0.636,0.288,0.827,0.54,0.863v0.132h-3.022V13.442z M17.78,9.244h0.576
			c1.032,0,1.739-0.659,1.739-1.99c0-1.08-0.54-1.607-1.691-1.607c-0.167,0-0.456,0.012-0.624,0.036V9.244z"/>
		<path fill="#0C2B57" d="M23.565,13.442c0.24-0.036,0.588-0.204,0.588-0.84V6.15c0-0.636-0.348-0.804-0.588-0.84V5.178h6.548
			l0.024,1.896H29.97c-0.251-1.224-1.019-1.332-2.146-1.332h-1.775v3.215h1.115c0.936,0,1.211-0.252,1.391-0.983h0.156v2.458h-0.156
			c-0.18-0.731-0.432-0.959-1.391-0.959h-1.115v3.118c0,0.144,0,0.336,0.024,0.42h1.979c1.104,0,1.763-0.18,1.991-1.415h0.168
			l-0.024,1.979h-6.621V13.442z"/>
		<path fill="#0C2B57" d="M41.08,5.178V5.31c-0.252,0.036-0.6,0.204-0.6,0.84v6.452c0,0.636,0.348,0.804,0.6,0.84v0.132h-3.095
			v-0.132c0.264-0.036,0.6-0.204,0.6-0.84V6.234h-0.024l-2.758,7.136h-0.563l-2.663-7.136h-0.024l0.024,4.726
			c0,0.6,0.012,1.211,0.072,1.679s0.288,0.756,0.66,0.804v0.132h-2.195v-0.132c0.324-0.048,0.588-0.312,0.647-0.804
			c0.048-0.432,0.084-1.079,0.096-1.679l0.048-5.241c-0.144-0.229-0.372-0.372-0.624-0.408V5.178h2.926l1.967,5.409h0.024
			l2.075-5.409H41.08z"/>
		<path fill="#0C2B57" d="M44.588,12.602c0,0.636,0.324,0.804,0.587,0.84v0.132h-3.07v-0.132c0.24-0.036,0.588-0.204,0.588-0.84
			V6.15c0-0.636-0.348-0.804-0.588-0.84V5.178h3.07V5.31c-0.264,0.036-0.587,0.204-0.587,0.84V12.602z"/>
		<path fill="#0C2B57" d="M49.04,5.178V5.31c-0.264,0.036-0.588,0.204-0.588,0.84v4.21c0,1.654,0.552,2.687,1.931,2.687
			c1.463,0,2.075-1.056,2.075-2.831v-2.23c0-0.504-0.024-1.571-0.084-1.943c-0.048-0.455-0.276-0.684-0.647-0.731V5.178h2.17V5.31
			c-0.324,0.048-0.587,0.252-0.647,0.744c-0.048,0.407-0.084,1.427-0.096,1.919l-0.036,2.422c-0.036,1.896-0.899,3.299-3.13,3.299
			c-0.959,0-1.691-0.18-2.207-0.54c-0.935-0.623-1.223-1.679-1.223-2.95V6.15c0-0.636-0.324-0.804-0.587-0.84V5.178H49.04z"/>
		<path fill="#0C2B57" d="M64.372,5.178V5.31c-0.252,0.036-0.6,0.204-0.6,0.84v6.452c0,0.636,0.348,0.804,0.6,0.84v0.132h-3.095
			v-0.132c0.264-0.036,0.6-0.204,0.6-0.84V6.234h-0.024l-2.758,7.136h-0.563l-2.663-7.136h-0.024l0.024,4.726
			c0,0.6,0.012,1.211,0.072,1.679s0.288,0.756,0.66,0.804v0.132h-2.195v-0.132c0.324-0.048,0.588-0.312,0.647-0.804
			c0.048-0.432,0.084-1.079,0.096-1.679l0.048-5.241c-0.144-0.229-0.372-0.372-0.624-0.408V5.178H57.5l1.967,5.409h0.024
			l2.075-5.409H64.372z"/>
	</g>
</g>
</svg>
