
<svg version="1.1" id="Layer_1" xmlns="http://www.w3.org/2000/svg" xmlns:xlink="http://www.w3.org/1999/xlink" x="0px" y="0px"
	 width="305px" height="30px" viewBox="0 0 305 30" enable-background="new 0 0 305 30" xml:space="preserve">
<g>
	<path fill="#FFFFFF" d="M257.8,3.6l-5.1,14.5h-0.1l-4.9-14.5h-7.7v0.2c1,0.1,2.2,0.8,2.2,2.9l-0.2,14.7c-0.1,2.3-1,4.7-3.4,4.9v0.2
		h7.4v-0.2c-2.3-0.2-3.4-1.9-3.4-4.6l0.1-15.8h0.1l7.2,20.6h0.3l7.5-20.9h0.1c-0.1,2.5-0.2,7.2-0.2,8.8v8.3c0,2.7-1.4,3.5-2.3,3.7
		v0.2h9.9v-0.2c-0.8-0.1-2.2-1-2.2-3.7V7.2c0-2.7,1.4-3.2,2.2-3.3V3.6H257.8z"/>
	<path fill="#FFFFFF" d="M235.6,7.2c0-2.7,1.4-3.2,2.3-3.3V3.6h-10.1v0.2c0.9,0.1,2.3,0.7,2.3,3.3v15.5c0,2.7-1.5,3.5-2.3,3.7v0.2
		h10.1v-0.2c-0.9-0.1-2.3-1-2.3-3.7V7.2z"/>
	<path fill="#FFFFFF" d="M274.6,26.1V14.8h2.1c2.8,0,3.9,0.9,4.7,2.8h0.2v-6h-0.2c-0.7,1.8-2,2.8-4.7,2.8h-2.1V4h2.2
		c2.6,0,6.1,0.4,7.5,4.3h0.2l-0.1-3V3.6h-17.2v0.2c0.7,0.1,2,0.5,2,3.2v15.7c0,2.7-1.3,3.4-2,3.5v0.2h17.7v-1.7l0.1-3.2h-0.2
		c-1.7,3.9-3.9,4.5-7.2,4.5H274.6z"/>
	<path fill="#FFFFFF" d="M207,3.6v1.7l-0.1,3h0.2c1.5-3.4,4.2-4.3,6.1-4.3h0.8v18.6c0,2.7-1.6,3.5-2.5,3.7v0.2h10.4v-0.2
		c-1-0.1-2.4-1-2.4-3.7V4h0.8c1.9,0,4.6,0.9,6.1,4.3h0.2l-0.1-3V3.6H207z"/>
	<path fill="#FFFFFF" d="M293,26.4c-3.2,0-5-2.8-5.8-4.8h-0.2l0.1,2.3v2.2c1.5,0.3,3.7,0.6,6.1,0.6c4.5,0,8.9-2.1,8.9-7
		c0-3.3-1.8-5.5-6.1-7.2c-2.9-1.1-4.7-2.4-4.7-5c0-2.5,2-4,4.3-4c2.9,0,4.5,2.1,5.4,4.7h0.2L301.1,6V3.8c-1.4-0.2-3.2-0.5-5.5-0.5
		c-5.5,0-8.6,2.7-8.6,6.7c0,4,2.7,5.6,5.7,6.8c3.2,1.3,4.9,2.7,4.9,5.4C297.5,25,295.7,26.4,293,26.4"/>
	<path fill="#FFFFFF" d="M43.6,7.2c0-2.7,1.4-3.2,2.3-3.3V3.6H35.8v0.2c0.9,0.1,2.3,0.7,2.3,3.3v7.3h-7.7V7.2c0-2.7,1.4-3.2,2.3-3.3
		V3.6H22.7v0.2c0.9,0.1,2.3,0.7,2.3,3.3v15.5c0,2.7-1.5,3.5-2.3,3.7v0.2h10.1v-0.2c-0.9-0.1-2.3-1-2.3-3.7v-7.7h7.7v7.7
		c0,2.7-1.5,3.5-2.3,3.7v0.2h10.1v-0.2c-0.9-0.1-2.3-1-2.3-3.7V7.2z"/>
	<path fill="#FFFFFF" d="M55.2,26.1V14.8h2.1c2.8,0,3.9,0.9,4.7,2.8h0.2v-6h-0.2c-0.7,1.8-2,2.8-4.7,2.8h-2.1V4h2.2
		c2.6,0,6.1,0.4,7.5,4.3H65l-0.1-3V3.6H47.7v0.2c0.7,0.1,2,0.5,2,3.2v15.7c0,2.7-1.3,3.4-2,3.5v0.2h17.7v-1.7l0.1-3.2h-0.2
		c-1.7,3.9-3.9,4.5-7.2,4.5H55.2z"/>
	<path fill="#FFFFFF" d="M2.1,3.6v1.7L2,8.3h0.2C3.7,5,6.4,4,8.3,4h0.8v18.6c0,2.7-1.6,3.5-2.5,3.7v0.2H17v-0.2
		c-1-0.1-2.4-1-2.4-3.7V4h0.8c1.9,0,4.6,0.9,6.1,4.3h0.2l-0.1-3V3.6H2.1z"/>
	<path fill="#FFFFFF" d="M78.5,26.4c-3.2,0-5-2.8-5.8-4.8h-0.2l0.1,2.3v2.2c1.5,0.3,3.7,0.6,6.1,0.6c4.5,0,8.9-2.1,8.9-7
		c0-3.3-1.8-5.5-6.1-7.2c-2.9-1.1-4.7-2.4-4.7-5c0-2.5,2-4,4.3-4c2.9,0,4.5,2.1,5.4,4.7h0.2L86.6,6V3.8c-1.4-0.2-3.2-0.5-5.5-0.5
		c-5.5,0-8.6,2.7-8.6,6.7c0,4,2.7,5.6,5.7,6.8c3.2,1.3,4.9,2.7,4.9,5.4C83,25,81.3,26.4,78.5,26.4"/>
	<path fill="#FFFFFF" d="M192.9,26.4c-3.2,0-5-2.8-5.8-4.8h-0.2l0.1,2.3v2.2c1.5,0.3,3.7,0.6,6.1,0.6c4.5,0,8.9-2.1,8.9-7
		c0-3.3-1.8-5.5-6.1-7.2c-2.9-1.1-4.7-2.4-4.7-5c0-2.5,2-4,4.3-4c2.9,0,4.5,2.1,5.4,4.7h0.2L201,6V3.8c-1.4-0.2-3.2-0.5-5.5-0.5
		c-5.5,0-8.6,2.7-8.6,6.7c0,4,2.7,5.6,5.7,6.8c3.2,1.3,4.9,2.7,4.9,5.4C197.4,25,195.7,26.4,192.9,26.4"/>
	<path fill="#FFFFFF" d="M88.4,3.6v1.7l-0.1,3h0.2C90,5,92.7,4,94.6,4h0.8v18.6c0,2.7-1.6,3.5-2.5,3.7v0.2h10.4v-0.2
		c-1-0.1-2.4-1-2.4-3.7V4h0.8c1.9,0,4.6,0.9,6.1,4.3h0.2l-0.1-3V3.6H88.4z"/>
	<path fill="#FFFFFF" d="M166.2,3.6v1.7l-0.1,3h0.2c1.5-3.4,4.2-4.3,6.1-4.3h0.8v18.6c0,2.7-1.6,3.5-2.5,3.7v0.2H181v-0.2
		c-1-0.1-2.4-1-2.4-3.7V4h0.8c1.9,0,4.6,0.9,6.1,4.3h0.2l-0.1-3V3.6H166.2z"/>
	<path fill="#FFFFFF" d="M162.5,7.2c0-2.7,1.4-3.2,2.3-3.3V3.6h-10.1v0.2c0.9,0.1,2.3,0.7,2.3,3.3v15.5c0,2.7-1.5,3.5-2.3,3.7v0.2
		h10.1v-0.2c-0.9-0.1-2.3-1-2.3-3.7V7.2z"/>
	<path fill="#FFFFFF" d="M116.7,4.1c0.4-0.1,0.9-0.1,1.2-0.1c3,0,4.7,1.6,4.7,5c0,3.8-1.9,5.7-5,5.7c-0.3,0-0.5,0-0.8,0V4.1z
		 M130.1,26.3c-1.1,0-1.5-2-2.3-4.6c-1.3-4.1-2.6-6.9-6.8-7.1l0.2-0.1c3.7-0.2,6.6-1.9,6.6-5.5c0-4.4-4.7-5.3-9.7-5.3h-9v0.2
		c0.9,0.1,2.3,0.7,2.3,3.3v15.5c0,2.7-1.5,3.5-2.3,3.7v0.2h9.7v-0.2c-0.9-0.1-2-1.1-2-3.8v-7.4h0.4c2.6,0,4.1,3.1,5.3,7.7
		c0.8,2.9,0.8,3.4,0.8,3.6v0.1h6.8V26.3z"/>
	<path fill="#FFFFFF" d="M140.3,6.3L140.3,6.3l3.6,11.5h-7.7L140.3,6.3z M130.4,26.5h6.5v-0.2c-1.3-0.1-2.3-1.2-2.3-2.8
		c0-1.2,0.3-2.3,0.9-3.9l0.5-1.4h8.1l0.3,1c0.6,1.9,1.2,3.9,1.2,5c0,0.8-0.3,2-1.4,2.1v0.2h9.8v-0.2c-1-0.1-2-1.1-2.5-2.9l-6.2-19.7
		h-6.6v0.2c0.8,0.2,1.3,1.2,1.3,1.7c0,0.4-0.1,0.7-0.3,1.3l-5,13.2c-1.6,4.5-3.1,6.2-4.2,6.3V26.5z"/>
</g>
<path display="none" fill="#FFFFFF" d="M173.3,3.5l-3.2,9.4l-2.8-9.4h-5.5v0.4c0.8,0.1,1.3,0.5,1.3,1.9v9.4c0,1.5-0.5,2.8-1.9,2.9
	v0.4h4.6v-0.4c-1.3-0.2-1.9-1.2-1.9-2.8V5h0.1l4.4,13.5h0.6l4.7-13.7h0c-0.1,1.4-0.1,4-0.1,5.2v6c0,1.7-1,2.1-1.5,2.1v0.4h6.5v-0.4
	c-0.5-0.1-1.4-0.4-1.4-2.1v-10c0-1.7,0.9-1.9,1.4-2V3.5H173.3z M159,5.9c0-1.7,1-2,1.6-2V3.5h-6.7v0.4c0.6,0.1,1.6,0.3,1.6,2v10
	c0,1.7-1,2.1-1.6,2.1v0.4h6.5v-0.4c-0.5-0.1-1.4-0.4-1.4-2.1V5.9z M184.7,17.9V11h1.2c1.8,0,2.4,0.6,2.9,1.8h0.4V8.6h-0.4
	c-0.5,1.2-1.2,1.9-2.9,1.9h-1.2V4h1.4c1.7,0,3.8,0.3,4.6,2.8h0.4V3.5h-11.2v0.4c0.5,0.1,1.3,0.2,1.3,1.9V16c0,1.7-0.8,2-1.3,2v0.4
	h11.4V15h-0.4c-0.8,2-1.6,2.9-4.3,2.9H184.7z M140.2,3.5v3.3h0.4c0.9-2.2,2.4-2.8,3.7-2.8h0.5v11.9c0,1.7-1,2.1-1.7,2.1v0.4h6.8
	v-0.4c-0.7-0.1-1.6-0.4-1.6-2.1V4h0.5c1.4,0,2.7,0.7,3.7,2.8h0.4V3.5H140.2z M196.7,18.1c-2.1,0-3.1-1.7-3.7-3.1h-0.4v3.2
	c1,0.2,2.4,0.4,4,0.4c3,0,5.8-1.3,5.8-4.6c0-2.1-1.1-3.6-3.9-4.7c-1.9-0.7-3.1-1.5-3.1-3.2c0-1.6,1.3-2.4,2.6-2.4
	c1.9,0,2.8,1.4,3.4,3.1h0.4V3.7c-0.8-0.2-2.1-0.4-3.6-0.4c-3.6,0-5.7,1.8-5.7,4.3c0,2.6,1.8,3.6,3.7,4.4c2.1,0.9,3.2,1.7,3.2,3.4
	C199.4,17.2,198.3,18.1,196.7,18.1L196.7,18.1z M29.8,5.9c0-1.7,1-1.9,1.5-2V3.5h-6.6v0.4c0.6,0.1,1.6,0.3,1.6,2v4.5h-5V5.9
	c0-1.7,1-1.9,1.5-2V3.5h-6.6v0.4c0.6,0.1,1.5,0.3,1.5,2v10c0,1.7-0.9,2.1-1.5,2.1v0.4h6.6v-0.4c-0.6-0.1-1.5-0.4-1.5-2.1v-4.9h5v4.9
	c0,1.7-1,2.1-1.6,2.1v0.4h6.6v-0.4c-0.6-0.1-1.5-0.4-1.5-2.1V5.9z M37.4,17.9V11h1.2c1.8,0,2.4,0.6,2.9,1.8h0.4V8.6h-0.4
	c-0.5,1.2-1.2,1.9-2.9,1.9h-1.2V4h1.4c1.7,0,3.7,0.3,4.6,2.8h0.4V3.5H32.5v0.4C33,4,33.8,4.1,33.8,5.8V16c0,1.7-0.8,2-1.3,2v0.4
	h11.6V15h-0.4c-1,2.5-2.2,2.9-4.3,2.9H37.4z M2.4,3.5v3.3h0.4C3.7,4.7,5.1,4,6.5,4H7v11.9c0,1.7-1.1,2.1-1.7,2.1v0.4h6.8v-0.4
	c-0.7-0.1-1.6-0.4-1.6-2.1V4h0.5c1.4,0,2.7,0.7,3.7,2.8h0.4V3.5H2.4z M54.7,18.1c-2.1,0-3.1-1.7-3.7-3.1h-0.4v3.2
	c0.9,0.2,2.3,0.4,3.9,0.4c3,0,5.8-1.3,5.8-4.6c0-2.1-1.1-3.6-3.9-4.7c-1.9-0.7-3.1-1.5-3.1-3.2c0-1.6,1.3-2.4,2.6-2.4
	c1.9,0,2.8,1.4,3.4,3.1h0.4V3.6c-0.9-0.2-2.1-0.3-3.6-0.3c-3.6,0-5.7,1.8-5.7,4.3c0,2.6,1.8,3.6,3.7,4.4c2.1,0.9,3.2,1.7,3.2,3.4
	C57.5,17.2,56.3,18.1,54.7,18.1L54.7,18.1z M129.5,18.1c-2.1,0-3.1-1.7-3.6-3.1h-0.4v3.2c0.9,0.2,2.4,0.4,4,0.4c3,0,5.8-1.3,5.8-4.6
	c0-2.1-1.1-3.6-3.9-4.7c-1.9-0.7-3.1-1.5-3.1-3.2c0-1.6,1.3-2.4,2.6-2.4c1.9,0,2.9,1.4,3.5,3.1h0.4V3.7c-0.9-0.2-2.1-0.4-3.6-0.4
	c-3.6,0-5.7,1.8-5.7,4.3c0,2.6,1.8,3.6,3.8,4.4c2.1,0.9,3.2,1.7,3.2,3.4C132.3,17.2,131.2,18.1,129.5,18.1L129.5,18.1z M61,3.5v3.3
	h0.4C62.3,4.7,63.7,4,65.1,4h0.5v11.9c0,1.7-1,2.1-1.6,2.1v0.4h6.8v-0.4c-0.7-0.1-1.6-0.4-1.6-2.1V4h0.5c1.4,0,2.7,0.7,3.7,2.8h0.4
	V3.5H61z M111.9,3.5v3.3h0.4c0.9-2.2,2.4-2.8,3.6-2.8h0.5v11.9c0,1.7-1,2.1-1.6,2.1v0.4h6.8v-0.4c-0.7-0.1-1.6-0.4-1.6-2.1V4h0.5
	c1.4,0,2.8,0.7,3.7,2.8h0.4V3.5H111.9z M109.4,5.9c0-1.7,0.9-2,1.5-2V3.5h-6.6v0.4c0.6,0.1,1.5,0.3,1.5,2v10c0,1.7-1,2.1-1.5,2.1
	v0.4h6.6v-0.4c-0.6-0.1-1.5-0.4-1.5-2.1V5.9z M102.3,16.4L98.4,3.5h-4.8v0.4c0.7,0.1,0.9,0.5,0.9,0.8c0,0.3-0.1,0.5-0.2,0.8
	l-3.2,8.8c-1,2.8-1.7,3.6-2.4,3.7v0.4H93v-0.4c-0.8-0.1-1.3-0.8-1.3-1.7c0-0.7,0.2-1.3,0.4-2.1l0.3-1h5.2c0.3,1.3,0.8,2.8,0.8,3.6
	c0,0.5-0.3,1-1.1,1.1v0.4h6.4v-0.4C103.2,18,102.7,17.6,102.3,16.4L102.3,16.4z M92.6,12.7l2.6-7.5h0.1l2.2,7.5H92.6z M88.4,18.4
	v-0.4c-0.5-0.1-0.7-0.4-1.3-2.6c-0.8-2.8-1.8-4.6-4.5-4.7l0.1-0.2C85,10.5,87,9.4,87,7c0-2.9-3.1-3.5-6.4-3.5h-5.9v0.4
	c0.6,0.1,1.5,0.3,1.5,2v10c0,1.7-1,2-1.5,2.1v0.4H81v-0.4c-0.6-0.1-1.3-0.5-1.3-2.3v-4.7H80c1.7,0,2.7,1.8,3.5,4.9
	c0.5,1.8,0.6,2.2,0.6,2.3v0.1H88.4z M80.3,10.6c-0.2,0-0.3,0-0.5,0V4.1C80,4,80.4,4,80.5,4c2,0,3,0.8,3,3
	C83.6,9.5,82.4,10.6,80.3,10.6z"/>
</svg>
